<?xml version="1.0" encoding="utf-8"?>
<!-- Generator: Adobe Illustrator 15.0.0, SVG Export Plug-In . SVG Version: 6.00 Build 0)  -->
<!DOCTYPE svg PUBLIC "-//W3C//DTD SVG 1.1//EN" "http://www.w3.org/Graphics/SVG/1.1/DTD/svg11.dtd">
<svg version="1.1" id="Layer_1" xmlns="http://www.w3.org/2000/svg" xmlns:xlink="http://www.w3.org/1999/xlink" x="0px" y="0px"
	 width="250px" height="130px" viewBox="0 0 250 130" enable-background="new 0 0 250 130" xml:space="preserve">
<path fill="#B99E30" d="M133.506,24.591c-0.045,3.737,2.401,8.488,2.207,8.5c1.911,4.009,2.027,8.503,2.016,12.856
	c-0.339,3.463-1.253,6.918-3.117,9.882c6.096-0.552,12.354,0.806,17.602,3.963c2.158,1.482,4.523,2.973,5.859,5.309
	c2.218,3.566,5.138,7.02,9.246,8.407c3.342,1.084,6.9,1.198,10.376,1.419c0,0-3.526,3.547-5.303,4.209
	c-4.795,1.251-9.853-0.018-14.036-2.476c-1.534-1.037-3.059-2.09-4.611-3.101c-1.6,2.124-3.971,3.436-5.768,5.358
	c-0.731,0.865-1.503,2.16-0.731,3.247c3.752,6.203,9.859,10.95,16.68,13.35c-1.559,1.369-3.715,1.42-5.657,1.752h-2.027
	c-2.316-0.508-4.666-1.046-6.761-2.2c-3.989-2.637-7.798-5.731-10.309-9.873c-2.161-3.678-4.558-7.676-8.609-9.491
	c-2.091-0.876-3.996-2.475-6.365-2.468c-3.243,0.338-6.12,2.004-8.797,3.741c-4.573,2.913-7.229,11.123-11.385,14.347
	c-4.044,3.69-15.194,6.231-20.813,5.083c6.859-4.283,14.846-8.241,18.16-16.132c-1.772-1.734-3.727-3.281-5.43-5.087
	c-0.534-0.514-0.852-0.835-1.535-1.354c-2.405,3.006-7.461,4.591-10.713,5.165c-2.935,0.518-12.285-1.521-13.753-3.153
	c0,0,10.187-1.363,14.103-4.681c4.406-3.063,6.312-8.703,11.207-11.183c5.35-3.168,11.56-4.804,17.775-4.801
	c0.86-10.746-8.913-19.112-7.003-29.939c0.471-4.419,2.033-8.769,4.776-12.299c1.854-2.159,4.414-3.507,7.105-4.297
	c-2.149,3.509-3.022,7.095-3.298,7.687c-1.529,4.784-1.683,9.948-0.148,14.747c3.961,0.045,7.921,0.13,11.881,0.271
	c-0.255-5.23-0.271-10.927,2.699-15.482c1.834-3.312,5.162-5.867,8.32-7.517l-2.806,7.709l-0.727,2.504l-0.249,1.526L133.506,24.591
	z M117.188,37.182c0.48,5.906,1.563,12.935-2.913,17.626c-1.137,2.587-12.992,8.227-14.821,11.52
	c-0.628,0.939-1.065,2.437-0.147,3.316c2.111,2.186,4.336,4.264,6.604,6.278c2.223-1.301,4.438-2.786,7.043-3.179
	c5.061-1.388,10.314,0.103,15.45-0.564c4.842-0.73,10.008,0.602,13.438,4.187c2.698-2.165,5.244-4.517,7.654-6.984
	c0.218-2.184-1.65-4.097-2.999-5.654c-3.396-3.802-8.311-5.438-12.798-7.467c-0.11-4.624-0.993-9.215-2.92-13.44
	c-0.939-1.805-1.14-4.106-2.627-5.583C124.504,36.997,120.842,37.172,117.188,37.182z"/>
<g>
	<path fill="#020202" d="M20.245,116.575c-0.469,0.162-0.933,0.284-1.391,0.365c-0.458,0.081-1.046,0.121-1.761,0.121
		c-1.509,0-2.697-0.593-3.563-1.777s-1.299-2.66-1.299-4.427c0-1.688,0.341-3.02,1.023-3.99c0.682-0.973,1.827-1.459,3.438-1.459
		c1.151,0,2.015,0.243,2.591,0.73c0.575,0.484,0.896,1.064,0.963,1.734h-1.645c-0.068-0.424-0.241-0.816-0.521-1.173
		c-0.279-0.358-0.777-0.536-1.492-0.536c-0.872,0-1.542,0.38-2.013,1.14c-0.469,0.76-0.705,1.799-0.705,3.119
		c0,1.007,0.101,1.935,0.302,2.784s0.61,1.577,1.224,2.188c0.614,0.611,1.486,0.915,2.616,0.915c0.403,0,0.802-0.047,1.199-0.141
		c0.396-0.092,0.741-0.191,1.032-0.296L20.245,116.575L20.245,116.575z"/>
	<path fill="#020202" d="M27.104,115.033c-0.213,0.503-0.523,0.968-0.931,1.393s-0.947,0.636-1.618,0.636
		c-0.872,0-1.473-0.268-1.803-0.804c-0.331-0.536-0.494-1.319-0.494-2.348v-3.219c0-0.437-0.117-0.718-0.353-0.847
		c-0.235-0.127-0.537-0.214-0.905-0.259v-0.285l2.55-0.408v5.236c0,0.637,0.103,1.149,0.31,1.534
		c0.207,0.387,0.573,0.577,1.098,0.577c0.526,0,1.014-0.371,1.468-1.114c0.453-0.743,0.68-1.424,0.68-2.038v-2.396
		c0-0.437-0.115-0.718-0.343-0.847c-0.229-0.127-0.534-0.214-0.915-0.259v-0.285l2.55-0.408v7.988h-1.294V115.033z"/>
	<path fill="#020202" d="M31.043,106.915c0-0.456-0.129-0.755-0.386-0.896c-0.257-0.14-0.565-0.208-0.922-0.208v-0.286l2.599-0.389
		v11.741h-1.292v-9.963H31.043z"/>
	<path fill="#020202" d="M38.841,116.962c-0.325,0.068-0.644,0.1-0.956,0.1c-1.05,0-1.714-0.169-1.987-0.51
		c-0.274-0.342-0.411-0.958-0.411-1.853v-5.048h-1.292v-0.569h1.292v-1.429l1.292-1.124v2.553h2.062v0.569h-2.062v5.532
		c0,0.471,0.122,0.793,0.368,0.965c0.247,0.173,0.598,0.261,1.057,0.261c0.18,0,0.319-0.011,0.419-0.034
		c0.101-0.022,0.174-0.033,0.219-0.033L38.841,116.962L38.841,116.962z"/>
	<path fill="#020202" d="M45.732,115.033c-0.212,0.503-0.523,0.968-0.931,1.393c-0.408,0.425-0.947,0.636-1.619,0.636
		c-0.872,0-1.473-0.268-1.802-0.804c-0.33-0.536-0.495-1.319-0.495-2.348v-3.219c0-0.437-0.117-0.718-0.352-0.847
		c-0.235-0.127-0.537-0.214-0.906-0.259v-0.285l2.55-0.408v5.236c0,0.637,0.103,1.149,0.31,1.534
		c0.207,0.387,0.573,0.577,1.098,0.577c0.526,0,1.016-0.371,1.468-1.114c0.453-0.743,0.679-1.424,0.679-2.038v-2.396
		c0-0.437-0.115-0.718-0.343-0.847c-0.229-0.127-0.534-0.214-0.914-0.259v-0.285l2.549-0.408v7.988h-1.291v-1.848H45.732z"/>
	<path fill="#020202" d="M49.689,110.74c0-0.457-0.115-0.754-0.344-0.888c-0.229-0.137-0.54-0.225-0.931-0.27v-0.285l2.566-0.407
		v1.996c0.212-0.593,0.47-1.073,0.772-1.442c0.301-0.367,0.799-0.554,1.492-0.554h0.151v1.392c-0.122-0.027-0.228-0.053-0.319-0.07
		c-0.09-0.02-0.167-0.029-0.235-0.029c-0.727,0-1.219,0.265-1.475,0.797c-0.257,0.531-0.386,1.156-0.386,1.87v4.028h-1.291V110.74z"
		/>
	<path fill="#020202" d="M58.728,115.805c-0.302,0.347-0.635,0.643-0.998,0.888c-0.364,0.247-0.824,0.369-1.383,0.369
		c-0.604,0-1.091-0.184-1.459-0.553c-0.369-0.369-0.553-0.844-0.553-1.427c0-1.027,0.47-1.701,1.409-2.02
		c0.938-0.319,1.934-0.479,2.984-0.479v-0.655c0-0.794-0.079-1.39-0.235-1.785c-0.156-0.396-0.547-0.597-1.174-0.597
		c-0.425,0-0.763,0.126-1.014,0.378c-0.251,0.252-0.377,0.619-0.377,1.1h-1.493c0-0.581,0.231-1.082,0.696-1.501
		c0.463-0.419,1.209-0.63,2.238-0.63c1.028,0,1.727,0.235,2.096,0.706c0.368,0.469,0.553,1.146,0.553,2.028v5.249h-1.292
		L58.728,115.805L58.728,115.805z M58.728,113.105c-0.692,0-1.362,0.113-2.003,0.343c-0.642,0.229-0.963,0.703-0.963,1.417
		c0,0.347,0.106,0.662,0.319,0.947c0.212,0.285,0.531,0.428,0.956,0.428c0.513,0,0.924-0.232,1.232-0.695
		c0.308-0.465,0.461-0.948,0.461-1.451v-0.988H58.728z"/>
	<path fill="#020202" d="M62.719,106.915c0-0.456-0.128-0.755-0.385-0.896c-0.257-0.14-0.565-0.208-0.923-0.208v-0.286l2.599-0.389
		v11.741h-1.292L62.719,106.915L62.719,106.915z"/>
	<path fill="#020202" d="M79.27,116.575c-0.469,0.162-0.934,0.284-1.392,0.365c-0.458,0.081-1.046,0.121-1.76,0.121
		c-1.509,0-2.697-0.593-3.563-1.777s-1.299-2.66-1.299-4.427c0-1.688,0.341-3.02,1.023-3.99c0.682-0.973,1.827-1.459,3.438-1.459
		c1.151,0,2.015,0.243,2.591,0.73c0.576,0.484,0.897,1.064,0.964,1.734h-1.643c-0.068-0.424-0.24-0.816-0.52-1.173
		c-0.28-0.358-0.777-0.536-1.492-0.536c-0.872,0-1.543,0.38-2.013,1.14c-0.469,0.76-0.704,1.799-0.704,3.119
		c0,1.007,0.101,1.935,0.302,2.784s0.61,1.577,1.224,2.188c0.614,0.611,1.486,0.915,2.616,0.915c0.403,0,0.802-0.047,1.199-0.141
		c0.397-0.092,0.741-0.191,1.031-0.296v0.702H79.27z"/>
	<path fill="#020202" d="M86.363,116.762c-0.157,0.065-0.427,0.133-0.813,0.2c-0.386,0.068-0.808,0.1-1.267,0.1
		c-1.252,0-2.216-0.371-2.893-1.114s-1.014-1.813-1.014-3.212c0-1.261,0.265-2.217,0.796-2.866c0.53-0.648,1.389-0.973,2.573-0.973
		c0.827,0,1.504,0.247,2.029,0.738c0.525,0.49,0.788,1.218,0.788,2.179v0.252h-4.896v0.353c0,0.938,0.315,1.84,0.947,2.7
		c0.632,0.859,1.483,1.291,2.557,1.291c0.156,0,0.319-0.014,0.486-0.043c0.168-0.026,0.403-0.081,0.705-0.159L86.363,116.762
		L86.363,116.762z M85.105,111.344c0-0.491-0.143-0.913-0.429-1.266c-0.288-0.353-0.672-0.527-1.154-0.527
		c-0.662,0-1.126,0.204-1.39,0.611c-0.264,0.409-0.418,0.854-0.463,1.336h3.438v-0.154H85.105z"/>
	<path fill="#020202" d="M88.727,110.691c0-0.437-0.117-0.719-0.352-0.848c-0.234-0.128-0.542-0.216-0.922-0.261v-0.284l2.566-0.407
		v2.23c0.235-0.536,0.581-1.041,1.039-1.518c0.458-0.476,1.058-0.713,1.794-0.713c0.76,0,1.283,0.171,1.569,0.513
		c0.285,0.343,0.428,0.843,0.428,1.502v5.972h-1.292v-5.419c0-0.604-0.063-1.045-0.185-1.325c-0.124-0.279-0.453-0.421-0.989-0.421
		c-0.581,0-1.121,0.374-1.618,1.117c-0.498,0.743-0.746,1.429-0.746,2.055v3.993h-1.293V110.691z"/>
	<path fill="#020202" d="M101.287,116.962c-0.325,0.068-0.643,0.1-0.956,0.1c-1.051,0-1.714-0.169-1.987-0.51
		c-0.274-0.342-0.411-0.958-0.411-1.853v-5.048H96.64v-0.569h1.292v-1.429l1.292-1.124v2.553h2.063v0.569h-2.063v5.532
		c0,0.471,0.122,0.793,0.368,0.965c0.246,0.173,0.598,0.261,1.057,0.261c0.179,0,0.319-0.011,0.418-0.034
		c0.101-0.022,0.174-0.033,0.219-0.033V116.962z"/>
	<path fill="#020202" d="M108.412,116.762c-0.156,0.065-0.427,0.133-0.813,0.2c-0.385,0.068-0.807,0.1-1.266,0.1
		c-1.253,0-2.217-0.371-2.892-1.114c-0.678-0.743-1.015-1.813-1.015-3.212c0-1.261,0.265-2.217,0.797-2.866
		c0.531-0.648,1.389-0.973,2.573-0.973c0.827,0,1.504,0.247,2.029,0.738c0.525,0.49,0.788,1.218,0.788,2.179v0.252h-4.896v0.353
		c0,0.938,0.315,1.84,0.947,2.7c0.632,0.859,1.483,1.291,2.557,1.291c0.156,0,0.319-0.014,0.487-0.043
		c0.168-0.026,0.403-0.081,0.704-0.159V116.762L108.412,116.762z M107.155,111.344c0-0.491-0.144-0.913-0.43-1.266
		s-0.672-0.527-1.154-0.527c-0.662,0-1.127,0.204-1.39,0.611c-0.265,0.409-0.419,0.854-0.463,1.336h3.438V111.344L107.155,111.344z"
		/>
	<path fill="#020202" d="M110.592,110.74c0-0.457-0.114-0.754-0.342-0.888c-0.23-0.135-0.541-0.225-0.932-0.27v-0.285l2.564-0.407
		v1.996c0.212-0.593,0.471-1.073,0.773-1.442c0.302-0.367,0.799-0.554,1.492-0.554h0.151v1.392c-0.124-0.027-0.23-0.053-0.32-0.07
		c-0.09-0.02-0.168-0.029-0.235-0.029c-0.726,0-1.218,0.265-1.476,0.797c-0.257,0.531-0.385,1.156-0.385,1.87v4.028h-1.291
		L110.592,110.74L110.592,110.74z"/>
	<path fill="#020202" d="M120.301,113.021c0-1.298,0.281-2.309,0.848-3.035c0.565-0.726,1.438-1.09,2.623-1.09
		c1.095,0,1.957,0.369,2.582,1.107c0.626,0.737,0.939,1.738,0.939,3.001c0,1.298-0.291,2.297-0.872,3.001
		c-0.582,0.704-1.454,1.056-2.616,1.056c-1.107,0-1.968-0.364-2.582-1.097C120.607,115.233,120.301,114.251,120.301,113.021z
		 M123.822,116.409c0.839,0,1.389-0.327,1.651-0.98c0.264-0.654,0.394-1.456,0.394-2.406c0-1.252-0.186-2.144-0.562-2.674
		c-0.374-0.53-0.879-0.797-1.517-0.797c-0.872,0-1.436,0.325-1.686,0.973c-0.251,0.648-0.377,1.481-0.377,2.5
		c0,0.87,0.151,1.653,0.452,2.348C122.48,116.062,123.028,116.409,123.822,116.409z"/>
	<path fill="#020202" d="M130.128,109.651h-1.326v-0.569h1.326v-0.956c0-0.884,0.159-1.603,0.478-2.156
		c0.32-0.553,0.958-0.83,1.92-0.83c0.793,0,1.383,0.183,1.768,0.546c0.388,0.363,0.581,0.779,0.581,1.249h-1.409
		c0-0.369-0.077-0.651-0.234-0.848c-0.157-0.194-0.431-0.292-0.821-0.292c-0.436,0-0.711,0.198-0.822,0.594
		c-0.112,0.397-0.168,0.977-0.168,1.737v0.956h2.264v0.569h-2.264v7.227h-1.291V109.651L130.128,109.651z"/>
	<path fill="#020202" d="M143.86,116.962c-0.322,0.068-0.643,0.1-0.955,0.1c-1.052,0-1.714-0.169-1.987-0.51
		c-0.274-0.342-0.411-0.958-0.411-1.853v-5.048h-1.292v-0.569h1.292v-1.429l1.291-1.124v2.553h2.063v0.569h-2.063v5.532
		c0,0.471,0.123,0.793,0.369,0.965c0.246,0.173,0.598,0.261,1.057,0.261c0.178,0,0.319-0.011,0.419-0.034
		c0.101-0.022,0.173-0.033,0.218-0.033V116.962z"/>
	<path fill="#020202" d="M145.689,106.915c0-0.456-0.129-0.755-0.387-0.896c-0.256-0.14-0.564-0.208-0.922-0.208v-0.286l2.6-0.389
		v6.025c0.425-0.796,0.848-1.371,1.267-1.729c0.419-0.356,0.885-0.536,1.4-0.536c0.883,0,1.439,0.278,1.668,0.831
		c0.228,0.553,0.344,1.283,0.344,2.188v4.965h-1.292v-5.014c0-0.717-0.062-1.253-0.186-1.612c-0.122-0.357-0.435-0.535-0.938-0.535
		c-0.458,0-0.951,0.384-1.477,1.148c-0.524,0.767-0.787,1.563-0.787,2.391v3.622h-1.291V106.915L145.689,106.915z"/>
	<path fill="#020202" d="M159.69,116.762c-0.157,0.065-0.428,0.133-0.813,0.2c-0.387,0.068-0.809,0.1-1.269,0.1
		c-1.252,0-2.215-0.371-2.892-1.114s-1.015-1.813-1.015-3.212c0-1.261,0.267-2.217,0.797-2.866c0.531-0.648,1.39-0.973,2.574-0.973
		c0.827,0,1.503,0.247,2.029,0.738c0.525,0.49,0.787,1.218,0.787,2.179v0.252h-4.896v0.353c0,0.938,0.315,1.84,0.947,2.7
		c0.631,0.859,1.483,1.291,2.557,1.291c0.156,0,0.318-0.014,0.486-0.043c0.168-0.026,0.402-0.081,0.703-0.159v0.555H159.69z
		 M158.433,111.344c0-0.491-0.145-0.913-0.431-1.266c-0.287-0.353-0.672-0.527-1.153-0.527c-0.663,0-1.127,0.204-1.391,0.611
		c-0.265,0.409-0.418,0.854-0.463,1.336h3.438L158.433,111.344L158.433,111.344z"/>
	<path fill="#020202" d="M167.085,107.369c0-0.514-0.102-0.863-0.302-1.047c-0.201-0.184-0.659-0.334-1.376-0.444v-0.285h4.059
		c1.454,0,2.577,0.161,3.37,0.485c0.794,0.324,1.191,1.14,1.191,2.447c0,1.274-0.422,2.08-1.266,2.416
		c-0.843,0.337-1.998,0.502-3.462,0.502h-0.755v5.435h-1.459L167.085,107.369L167.085,107.369z M168.544,110.791h0.722
		c1.005,0,1.775-0.135,2.313-0.402c0.536-0.268,0.804-0.889,0.804-1.862c0-0.805-0.206-1.385-0.62-1.743
		c-0.414-0.356-1.012-0.536-1.794-0.536c-0.66,0-1.063,0.062-1.207,0.184c-0.146,0.124-0.218,0.437-0.218,0.938V110.791z"/>
	<path fill="#020202" d="M175.856,106.915c0-0.456-0.13-0.755-0.388-0.896c-0.257-0.14-0.564-0.208-0.923-0.208v-0.286l2.601-0.389
		v6.025c0.425-0.796,0.847-1.371,1.265-1.729c0.421-0.356,0.887-0.536,1.4-0.536c0.884,0,1.438,0.278,1.668,0.831
		s0.343,1.283,0.343,2.188v4.965h-1.292v-5.014c0-0.717-0.061-1.253-0.184-1.612c-0.123-0.355-0.435-0.535-0.938-0.535
		c-0.459,0-0.95,0.384-1.477,1.148c-0.525,0.767-0.788,1.563-0.788,2.391v3.622h-1.291v-9.966H175.856z"/>
	<path fill="#020202" d="M184.642,110.691c0-0.437-0.116-0.719-0.35-0.848c-0.235-0.128-0.538-0.216-0.906-0.261v-0.284l2.548-0.402
		v7.981h-1.292V110.691z M184.274,106.348c0-0.27,0.088-0.491,0.267-0.671c0.18-0.178,0.408-0.268,0.688-0.268
		c0.257,0,0.479,0.093,0.662,0.277c0.186,0.185,0.276,0.404,0.276,0.661c0,0.268-0.089,0.491-0.268,0.67
		c-0.179,0.18-0.401,0.27-0.671,0.27c-0.267,0-0.493-0.092-0.679-0.278C184.366,106.825,184.274,106.604,184.274,106.348z"/>
	<path fill="#020202" d="M188.601,106.915c0-0.456-0.13-0.755-0.388-0.896c-0.258-0.14-0.563-0.208-0.923-0.208v-0.286l2.6-0.389
		v11.741h-1.291v-9.963H188.601z"/>
	<path fill="#020202" d="M192.725,110.691c0-0.437-0.117-0.719-0.353-0.848c-0.234-0.128-0.535-0.216-0.905-0.261v-0.284
		l2.549-0.402v7.981h-1.291V110.691L192.725,110.691z M192.355,106.348c0-0.27,0.09-0.491,0.269-0.671
		c0.178-0.178,0.407-0.268,0.688-0.268c0.256,0,0.478,0.093,0.662,0.277c0.183,0.185,0.277,0.404,0.277,0.661
		c0,0.268-0.09,0.491-0.27,0.67c-0.18,0.18-0.403,0.27-0.67,0.27c-0.268,0-0.495-0.092-0.68-0.278
		C192.447,106.825,192.355,106.604,192.355,106.348z"/>
	<path fill="#020202" d="M196.765,110.672c0-0.459-0.117-0.751-0.351-0.873c-0.235-0.124-0.561-0.207-0.975-0.252v-0.28l2.616-0.375
		v1.274c0.158-0.323,0.411-0.617,0.763-0.879c0.352-0.265,0.781-0.396,1.284-0.396c1.017,0,1.786,0.374,2.304,1.116
		c0.521,0.744,0.781,1.725,0.781,2.943c0,1.197-0.242,2.181-0.721,2.953c-0.481,0.771-1.237,1.157-2.265,1.157
		c-0.535,0-0.989-0.136-1.356-0.409c-0.37-0.275-0.621-0.578-0.756-0.916l-0.032,4.713h-1.293V110.672L196.765,110.672z
		 M198.056,113.422c0,0.738,0.149,1.421,0.445,2.048c0.296,0.625,0.779,0.939,1.448,0.939c0.684,0,1.156-0.351,1.418-1.051
		c0.264-0.698,0.394-1.489,0.394-2.374c0-0.815-0.14-1.594-0.419-2.332s-0.761-1.107-1.441-1.107c-0.549,0-0.992,0.273-1.334,0.821
		c-0.342,0.549-0.512,1.163-0.512,1.846L198.056,113.422L198.056,113.422z"/>
	<path fill="#020202" d="M205.469,110.672c0-0.459-0.118-0.751-0.352-0.873c-0.235-0.124-0.56-0.207-0.974-0.252v-0.28l2.617-0.375
		v1.274c0.155-0.323,0.409-0.617,0.763-0.879c0.351-0.263,0.779-0.396,1.281-0.396c1.018,0,1.787,0.374,2.305,1.116
		c0.521,0.742,0.782,1.725,0.782,2.943c0,1.197-0.241,2.181-0.722,2.953c-0.48,0.771-1.235,1.157-2.263,1.157
		c-0.538,0-0.99-0.136-1.359-0.409c-0.367-0.275-0.619-0.578-0.754-0.916l-0.032,4.713h-1.292L205.469,110.672L205.469,110.672z
		 M206.761,113.422c0,0.738,0.146,1.421,0.443,2.048c0.297,0.625,0.78,0.939,1.45,0.939c0.682,0,1.154-0.351,1.417-1.051
		c0.262-0.698,0.395-1.489,0.395-2.374c0-0.815-0.142-1.594-0.421-2.332s-0.76-1.107-1.44-1.107c-0.549,0-0.993,0.273-1.334,0.821
		c-0.342,0.549-0.512,1.163-0.512,1.846v1.21H206.761z"/>
	<path fill="#020202" d="M214.172,110.691c0-0.437-0.119-0.719-0.352-0.848c-0.235-0.128-0.538-0.216-0.907-0.261v-0.284
		l2.549-0.402v7.981h-1.29V110.691z M213.803,106.348c0-0.27,0.089-0.491,0.268-0.671c0.179-0.178,0.408-0.268,0.688-0.268
		c0.256,0,0.479,0.093,0.661,0.277c0.187,0.185,0.277,0.404,0.277,0.661c0,0.268-0.089,0.491-0.269,0.67
		c-0.18,0.18-0.401,0.27-0.67,0.27s-0.494-0.092-0.679-0.278C213.895,106.825,213.803,106.604,213.803,106.348z"/>
	<path fill="#020202" d="M218.329,110.691c0-0.437-0.116-0.719-0.351-0.848c-0.234-0.128-0.542-0.216-0.922-0.261v-0.284
		l2.565-0.407v2.23c0.234-0.536,0.58-1.041,1.039-1.518c0.459-0.476,1.057-0.713,1.794-0.713c0.761,0,1.284,0.171,1.57,0.513
		c0.284,0.343,0.427,0.843,0.427,1.502v5.972h-1.291v-5.419c0-0.604-0.063-1.045-0.184-1.325c-0.124-0.279-0.455-0.421-0.991-0.421
		c-0.58,0-1.12,0.374-1.617,1.117c-0.498,0.742-0.747,1.429-0.747,2.055v3.993h-1.292L218.329,110.691L218.329,110.691z"/>
	<path fill="#020202" d="M232.432,116.762c-0.157,0.065-0.429,0.133-0.813,0.2c-0.386,0.068-0.808,0.1-1.265,0.1
		c-1.253,0-2.218-0.371-2.894-1.114s-1.015-1.813-1.015-3.212c0-1.261,0.267-2.217,0.797-2.866c0.531-0.648,1.389-0.973,2.573-0.973
		c0.828,0,1.505,0.247,2.029,0.738c0.526,0.49,0.788,1.218,0.788,2.179v0.252h-4.895v0.353c0,0.938,0.314,1.84,0.946,2.7
		c0.632,0.859,1.483,1.291,2.558,1.291c0.157,0,0.318-0.014,0.486-0.043c0.167-0.026,0.403-0.081,0.704-0.159L232.432,116.762
		L232.432,116.762z M231.175,111.344c0-0.491-0.144-0.913-0.431-1.266c-0.288-0.353-0.671-0.527-1.155-0.527
		c-0.661,0-1.125,0.204-1.389,0.611c-0.265,0.409-0.42,0.854-0.464,1.336h3.438V111.344z"/>
	<path fill="#020202" d="M238.419,110.188c-0.448-0.223-0.797-0.388-1.048-0.486c-0.252-0.1-0.578-0.152-0.98-0.152
		s-0.735,0.086-0.998,0.251c-0.263,0.169-0.393,0.441-0.393,0.823c0,0.446,0.327,0.842,0.979,1.181
		c0.654,0.343,1.3,0.675,1.937,0.999c0.683,0.479,1.023,1.101,1.023,1.861c0,0.804-0.267,1.405-0.8,1.8
		c-0.534,0.397-1.254,0.596-2.164,0.596c-0.468,0-0.866-0.028-1.202-0.092c-0.332-0.062-0.648-0.143-0.947-0.243v-1.057
		c0.254,0.135,0.516,0.27,0.781,0.403c0.521,0.224,0.997,0.335,1.43,0.335c0.543,0,0.967-0.111,1.272-0.335
		c0.305-0.224,0.458-0.587,0.458-1.091c0-0.458-0.343-0.883-1.023-1.273c-0.639-0.335-1.269-0.672-1.896-1.007
		c-0.682-0.458-1.022-0.994-1.022-1.61c0-0.681,0.22-1.218,0.661-1.61c0.441-0.39,1.132-0.587,2.07-0.587
		c0.348,0,0.63,0.021,0.848,0.059c0.218,0.041,0.558,0.114,1.014,0.229V110.188L238.419,110.188z"/>
</g>
</svg>
