<?xml version="1.0" encoding="UTF-8" ?>
<!DOCTYPE svg PUBLIC "-//W3C//DTD SVG 1.1//EN" "http://www.w3.org/Graphics/SVG/1.1/DTD/svg11.dtd">
<svg width="420.75pt" height="133.5pt" viewBox="0 0 2439 774" version="1.1" xmlns="http://www.w3.org/2000/svg">
<g id="#f1513bff">
<path fill="#f1513b" opacity="1.00" d=" M 203.49 12.14 L 203.82 12.41 C 206.29 14.53 208.93 16.45 211.27 18.72 C 262.04 69.61 312.85 120.48 363.75 171.25 C 372.89 180.52 382.32 189.51 391.25 198.98 C 414.64 221.51 437.19 244.89 460.30 267.70 C 497.42 304.91 534.68 341.99 571.76 379.24 C 574.18 381.59 576.52 384.04 578.50 386.79 C 579.30 397.51 578.93 408.26 579.01 419.00 C 579.02 524.33 578.98 629.67 579.03 735.00 C 579.29 742.84 578.08 750.62 577.68 758.44 C 576.48 757.61 575.27 756.79 574.19 755.83 C 520.62 702.07 466.91 648.44 413.28 594.73 C 405.73 587.37 398.56 579.59 390.39 572.89 C 391.12 567.62 391.02 562.30 390.94 557.00 C 390.91 438.28 390.97 319.56 390.90 200.84 C 385.62 205.90 380.33 210.96 375.14 216.12 C 366.00 225.97 355.88 234.85 346.73 244.68 C 336.24 255.86 324.69 266.00 314.25 277.22 C 305.33 286.64 295.60 295.23 286.74 304.70 C 279.01 312.97 270.50 320.47 262.71 328.67 C 255.40 336.37 247.78 343.77 240.11 351.11 C 234.93 356.27 229.98 361.65 224.78 366.79 C 217.99 373.58 211.86 381.06 204.49 387.26 C 200.81 382.72 196.49 378.76 192.39 374.61 C 140.89 323.11 89.38 271.62 37.89 220.11 C 33.08 215.26 28.41 210.26 23.25 205.78 C 21.65 204.32 19.85 202.95 18.88 200.96 C 18.69 199.25 18.57 197.30 20.11 196.15 C 80.15 136.18 140.05 76.07 200.46 16.48 C 201.77 15.26 202.78 13.78 203.49 12.14 Z" />
<path fill="#f1513b" opacity="1.00" d=" M 613.29 349.29 C 663.64 298.85 714.02 248.44 764.41 198.05 C 764.96 199.63 764.94 201.32 764.90 202.98 C 763.70 226.30 764.36 249.66 764.21 273.00 C 764.19 362.67 764.19 452.34 764.25 542.01 C 764.44 551.70 763.84 561.43 764.63 571.11 C 758.97 567.66 754.83 562.42 750.07 557.92 C 723.26 531.74 696.91 505.08 670.42 478.58 C 644.63 452.70 618.70 426.96 592.92 401.07 C 588.20 396.23 583.01 391.85 578.50 386.79 C 579.88 383.32 582.47 380.61 585.02 377.96 C 594.01 367.99 603.85 358.83 613.29 349.29 Z" />
</g>
<g id="#dddeceff">
<path fill="#dddece" opacity="1.00" d=" M 203.82 12.41 C 243.87 12.11 283.94 12.46 324.00 12.40 C 399.00 12.40 474.00 12.41 549.00 12.40 C 557.58 12.25 566.17 12.28 574.73 12.95 C 574.53 13.42 574.14 14.35 573.94 14.81 C 571.01 19.47 566.70 22.99 562.81 26.82 C 553.90 35.23 545.75 44.40 536.91 52.89 C 525.85 63.16 515.84 74.48 504.86 84.84 C 495.16 93.80 486.50 103.81 476.90 112.88 C 466.70 122.35 457.48 132.79 447.40 142.37 C 442.77 146.75 438.17 151.17 433.82 155.84 C 419.93 170.51 404.81 183.99 391.25 198.98 C 382.32 189.51 372.89 180.52 363.75 171.25 C 312.85 120.48 262.04 69.61 211.27 18.72 C 208.93 16.45 206.29 14.53 203.82 12.41 Z" />
<path fill="#dddece" opacity="1.00" d=" M 18.88 200.96 C 19.85 202.95 21.65 204.32 23.25 205.78 C 28.41 210.26 33.08 215.26 37.89 220.11 C 89.38 271.62 140.89 323.11 192.39 374.61 C 196.49 378.76 200.81 382.72 204.49 387.26 C 204.94 411.17 204.56 435.09 204.64 459.00 C 204.57 481.01 204.75 503.02 204.50 525.02 C 204.83 596.67 204.59 668.33 204.52 739.99 C 204.48 746.57 205.40 753.12 205.20 759.70 C 203.20 758.83 202.02 756.97 200.65 755.38 C 196.89 750.81 192.43 746.91 188.29 742.71 C 138.79 693.22 89.25 643.76 39.74 594.27 C 33.17 587.48 26.42 580.83 18.91 575.09 C 18.34 454.39 18.96 333.70 18.47 213.00 C 18.35 208.98 19.26 204.98 18.88 200.96 Z" />
<path fill="#dddece" opacity="1.00" d=" M 578.50 386.79 C 583.01 391.85 588.20 396.23 592.92 401.07 C 618.70 426.96 644.63 452.70 670.42 478.58 C 696.91 505.08 723.26 531.74 750.07 557.92 C 754.83 562.42 758.97 567.66 764.63 571.11 L 765.36 571.74 C 712.60 624.52 659.85 677.31 607.08 730.08 C 597.65 739.78 587.46 748.76 578.86 759.24 C 469.90 759.19 360.95 759.28 252.00 759.30 C 236.54 759.12 221.05 759.64 205.61 759.03 C 207.74 755.17 211.06 752.22 214.14 749.14 C 272.97 690.47 331.55 631.55 390.39 572.89 C 398.56 579.59 405.73 587.37 413.28 594.73 C 466.91 648.44 520.62 702.07 574.19 755.83 C 575.27 756.79 576.48 757.61 577.68 758.44 C 578.08 750.62 579.29 742.84 579.03 735.00 C 578.98 629.67 579.02 524.33 579.01 419.00 C 578.93 408.26 579.30 397.51 578.50 386.79 Z" />
<path fill="#dddece" opacity="1.00" d=" M 1110.39 449.29 C 1110.44 449.40 1110.53 449.62 1110.58 449.73 C 1110.53 449.62 1110.44 449.40 1110.39 449.29 Z" />
<path fill="#dddece" opacity="1.00" d=" M 1119.40 469.29 C 1119.45 469.39 1119.55 469.61 1119.60 469.72 C 1119.55 469.61 1119.45 469.39 1119.40 469.29 Z" />
</g>
<g id="#f9b025ff">
<path fill="#f9b025" opacity="1.00" d=" M 575.20 12.88 C 577.57 12.87 580.07 13.37 581.64 15.32 C 635.55 69.42 689.54 123.45 743.56 177.44 C 750.40 184.42 757.47 191.17 764.41 198.05 C 714.02 248.44 663.64 298.85 613.29 349.29 C 603.85 358.83 594.01 367.99 585.02 377.96 C 582.47 380.61 579.88 383.32 578.50 386.79 C 576.52 384.04 574.18 381.59 571.76 379.24 C 534.68 341.99 497.42 304.91 460.30 267.70 C 437.19 244.89 414.64 221.51 391.25 198.98 C 404.81 183.99 419.93 170.51 433.82 155.84 C 438.17 151.17 442.77 146.75 447.40 142.37 C 457.48 132.79 466.70 122.35 476.90 112.88 C 486.50 103.81 495.16 93.80 504.86 84.84 C 515.84 74.48 525.85 63.16 536.91 52.89 C 545.75 44.40 553.90 35.23 562.81 26.82 C 566.70 22.99 571.01 19.47 573.94 14.81 C 574.26 14.33 574.89 13.36 575.20 12.88 Z" />
<path fill="#f9b025" opacity="1.00" d=" M 375.14 216.12 C 380.33 210.96 385.62 205.90 390.90 200.84 C 390.97 319.56 390.91 438.28 390.94 557.00 C 391.02 562.30 391.12 567.62 390.39 572.89 C 331.55 631.55 272.97 690.47 214.14 749.14 C 211.06 752.22 207.74 755.17 205.61 759.03 L 205.20 759.70 C 205.40 753.12 204.48 746.57 204.52 739.99 C 204.59 668.33 204.83 596.67 204.50 525.02 C 204.75 503.02 204.57 481.01 204.64 459.00 C 204.56 435.09 204.94 411.17 204.49 387.26 C 211.86 381.06 217.99 373.58 224.78 366.79 C 229.98 361.65 234.93 356.27 240.11 351.11 C 247.78 343.77 255.40 336.37 262.71 328.67 C 270.50 320.47 279.01 312.97 286.74 304.70 C 295.60 295.23 305.33 286.64 314.25 277.22 C 324.69 266.00 336.24 255.86 346.73 244.68 C 355.88 234.85 366.00 225.97 375.14 216.12 Z" />
</g>
<g id="#231f21ff">
<path fill="#231f21" opacity="1.00" d=" M 1274.42 221.14 C 1277.00 221.39 1280.19 220.65 1282.15 222.81 C 1295.85 236.47 1308.88 250.79 1322.11 264.90 C 1329.88 272.97 1337.19 281.55 1345.51 289.06 C 1345.80 267.00 1344.91 244.91 1346.07 222.87 C 1352.64 222.60 1359.23 222.49 1365.79 223.08 C 1366.97 234.34 1366.07 245.69 1366.34 257.00 C 1366.28 281.34 1366.42 305.68 1366.26 330.01 C 1366.40 334.34 1360.03 335.36 1357.82 332.18 C 1340.09 313.21 1323.02 293.65 1305.32 274.67 C 1301.69 271.10 1298.54 267.00 1294.47 263.91 C 1294.40 283.94 1294.33 303.97 1294.45 324.00 C 1294.51 326.75 1294.23 329.54 1293.09 332.08 C 1286.88 331.86 1280.66 332.17 1274.46 331.81 C 1273.89 308.87 1274.05 285.94 1274.17 263.00 C 1274.27 249.04 1273.77 235.08 1274.42 221.14 Z" />
<path fill="#231f21" opacity="1.00" d=" M 1629.32 221.15 C 1631.79 221.26 1635.22 220.93 1636.16 223.91 C 1651.02 256.92 1666.22 289.78 1681.26 322.72 C 1682.38 325.48 1684.22 328.26 1683.53 331.39 C 1677.16 332.28 1670.70 332.16 1664.33 331.60 C 1659.78 325.87 1658.22 318.58 1654.84 312.24 C 1639.36 312.33 1623.88 312.00 1608.41 312.42 C 1605.66 318.89 1603.07 325.47 1599.47 331.53 C 1593.05 332.66 1586.34 331.57 1579.82 331.79 C 1579.58 328.95 1580.49 326.23 1581.70 323.72 C 1597.58 289.53 1613.27 255.26 1629.32 221.15 M 1631.24 260.73 C 1626.68 271.97 1621.29 282.87 1616.77 294.13 C 1626.66 294.49 1636.58 294.43 1646.48 294.14 C 1643.50 286.15 1639.59 278.55 1636.23 270.73 C 1634.55 267.40 1633.56 263.68 1631.24 260.73 Z" />
<path fill="#231f21" opacity="1.00" d=" M 1722.43 221.42 C 1724.56 221.24 1726.69 221.12 1728.85 221.02 C 1739.31 241.33 1748.49 262.25 1758.16 282.94 C 1760.39 287.27 1761.93 291.98 1764.67 296.03 C 1775.93 271.00 1787.96 246.32 1799.24 221.30 C 1801.47 221.24 1803.72 221.19 1805.99 221.15 C 1810.81 242.60 1814.10 264.37 1818.00 286.00 C 1820.36 300.96 1823.39 315.80 1825.83 330.75 C 1819.48 333.24 1812.59 331.48 1806.01 331.72 C 1803.62 322.35 1802.68 312.68 1800.88 303.19 C 1799.22 292.78 1797.64 282.36 1796.38 271.90 C 1794.54 273.43 1793.83 275.78 1792.81 277.85 C 1784.43 295.35 1777.25 313.41 1768.89 330.91 C 1767.72 334.29 1763.76 333.31 1761.04 333.35 C 1753.06 316.12 1745.05 298.89 1737.61 281.42 C 1736.15 278.17 1735.17 274.68 1733.12 271.73 C 1728.70 291.44 1726.23 311.53 1723.43 331.51 C 1716.88 332.20 1710.31 331.86 1703.75 331.80 C 1703.20 328.03 1703.86 324.25 1704.58 320.56 C 1710.90 287.58 1716.05 254.39 1722.43 221.42 Z" />
<path fill="#231f21" opacity="1.00" d=" M 2105.43 221.57 C 2121.02 219.73 2137.29 224.50 2149.20 234.78 C 2165.55 248.80 2172.76 272.76 2166.41 293.41 C 2162.00 308.66 2150.88 321.90 2136.36 328.44 C 2122.04 335.25 2105.11 335.09 2090.44 329.49 C 2076.27 323.23 2064.31 311.33 2059.59 296.40 C 2053.66 280.00 2055.95 261.02 2065.47 246.44 C 2074.34 232.91 2089.28 223.34 2105.43 221.57 M 2108.30 242.15 C 2100.34 243.56 2092.43 246.88 2086.84 252.87 C 2081.11 259.16 2077.17 267.35 2076.98 275.95 C 2076.34 286.03 2080.74 296.08 2087.95 303.03 C 2097.29 311.98 2111.68 315.51 2123.94 311.00 C 2131.58 308.48 2137.71 302.75 2142.46 296.43 C 2148.20 287.77 2149.40 276.44 2146.28 266.60 C 2143.35 257.89 2137.07 250.30 2128.83 246.14 C 2122.55 243.01 2115.35 240.62 2108.30 242.15 Z" />
<path fill="#231f21" opacity="1.00" d=" M 2203.01 225.00 C 2216.09 218.94 2231.62 220.44 2244.40 226.57 C 2247.62 228.21 2251.03 229.78 2253.63 232.37 C 2254.61 235.79 2252.84 239.29 2252.55 242.73 C 2249.79 243.38 2247.83 245.20 2246.50 247.61 C 2243.65 249.44 2240.86 246.80 2238.36 245.64 C 2232.16 242.37 2225.45 238.62 2218.20 239.39 C 2212.37 240.27 2205.89 245.36 2207.16 251.87 C 2208.35 257.48 2213.24 261.40 2218.15 263.84 C 2228.30 268.81 2239.51 272.25 2248.02 280.02 C 2259.13 289.49 2261.55 307.80 2252.52 319.47 C 2245.12 329.98 2231.51 334.47 2219.06 333.44 C 2206.68 332.89 2193.79 328.60 2185.59 318.92 C 2188.37 314.27 2190.57 308.95 2194.18 304.98 C 2201.58 306.56 2207.34 312.23 2214.60 314.35 C 2220.64 316.63 2228.22 315.62 2232.67 310.66 C 2236.25 306.73 2236.18 300.18 2232.90 296.09 C 2228.77 290.80 2222.43 288.07 2216.43 285.54 C 2207.63 281.65 2198.57 277.20 2192.51 269.47 C 2189.18 264.99 2186.67 259.69 2186.25 254.06 C 2185.24 242.20 2192.16 229.99 2203.01 225.00 Z" />
<path fill="#231f21" opacity="1.00" d=" M 1227.02 222.86 C 1233.32 222.57 1239.64 222.48 1245.94 222.91 C 1246.57 225.90 1247.08 228.92 1247.02 231.99 C 1246.99 259.32 1247.01 286.66 1247.00 314.00 C 1246.94 319.96 1247.40 326.02 1245.98 331.87 C 1239.58 332.05 1233.18 331.96 1226.78 331.93 C 1225.42 304.64 1226.44 277.31 1226.18 250.00 C 1226.39 240.96 1225.38 231.82 1227.02 222.86 Z" />
<path fill="#231f21" opacity="1.00" d=" M 1389.91 222.81 C 1414.24 222.68 1438.58 222.41 1462.91 222.96 C 1463.03 229.16 1463.30 235.37 1462.81 241.56 C 1454.16 241.71 1445.50 241.37 1436.87 241.77 C 1436.62 271.73 1436.85 301.71 1436.62 331.68 C 1429.87 331.92 1423.12 332.08 1416.38 331.74 C 1415.29 301.63 1416.59 271.49 1415.59 241.38 C 1406.83 241.36 1398.03 242.05 1389.33 240.95 C 1389.41 234.90 1388.88 228.80 1389.91 222.81 Z" />
<path fill="#231f21" opacity="1.00" d=" M 1484.40 223.34 C 1485.54 222.13 1487.46 222.83 1488.97 222.59 C 1503.30 222.77 1517.63 222.60 1531.96 222.66 C 1548.03 222.74 1563.46 235.85 1564.84 252.10 C 1565.51 260.31 1564.27 269.27 1558.74 275.73 C 1554.74 281.30 1548.85 284.90 1542.85 287.95 C 1547.81 298.79 1553.76 309.13 1559.44 319.61 C 1561.43 323.41 1564.33 327.31 1563.34 331.86 C 1556.32 331.90 1549.29 332.26 1542.29 331.59 C 1535.66 318.52 1528.94 305.48 1522.83 292.16 C 1522.30 291.01 1521.49 289.93 1520.16 289.80 C 1515.01 288.53 1509.64 288.99 1504.40 289.21 C 1504.05 303.15 1505.11 317.12 1503.76 331.02 C 1497.39 332.66 1490.71 331.92 1484.22 331.79 C 1482.96 326.61 1483.41 321.27 1483.36 316.00 C 1483.34 287.31 1483.36 258.62 1483.32 229.94 C 1483.36 227.71 1483.51 225.42 1484.40 223.34 M 1504.56 242.35 C 1504.31 252.12 1504.31 261.92 1504.53 271.70 L 1505.10 272.31 C 1513.73 272.48 1522.40 272.65 1531.03 272.17 C 1535.71 272.09 1539.80 268.97 1542.13 265.07 C 1546.36 258.30 1544.89 247.40 1536.94 244.09 C 1526.96 239.47 1515.64 242.26 1505.06 241.70 L 1504.56 242.35 Z" />
<path fill="#231f21" opacity="1.00" d=" M 1845.84 222.64 C 1851.86 222.77 1857.91 222.43 1863.93 222.79 C 1865.92 223.99 1865.75 226.86 1865.96 228.93 C 1865.99 249.63 1865.93 270.34 1865.98 291.05 C 1865.92 297.32 1869.12 303.20 1873.46 307.54 C 1880.57 313.79 1891.72 314.68 1899.83 309.84 C 1906.92 306.05 1910.41 297.81 1910.70 290.08 C 1911.63 267.75 1910.03 245.39 1911.40 223.07 C 1918.09 222.40 1924.89 222.49 1931.59 223.20 C 1931.63 245.81 1931.62 268.42 1931.69 291.03 C 1931.81 305.82 1923.62 320.44 1910.70 327.72 C 1895.52 336.32 1875.24 335.42 1861.33 324.67 C 1850.88 316.89 1844.85 303.91 1844.72 290.97 C 1844.66 272.98 1844.77 254.98 1844.71 236.99 C 1844.70 232.19 1844.45 227.29 1845.84 222.64 Z" />
<path fill="#231f21" opacity="1.00" d=" M 1957.94 222.97 C 1973.61 222.39 1989.29 222.79 2004.97 222.68 C 2014.99 222.46 2024.81 227.18 2031.25 234.78 C 2039.79 244.62 2041.91 259.93 2035.42 271.39 C 2031.46 278.71 2024.78 284.35 2017.11 287.45 C 2018.81 293.62 2022.33 299.06 2025.20 304.73 C 2029.16 312.10 2033.41 319.32 2037.15 326.81 C 2037.80 328.28 2038.69 330.83 2036.66 331.61 C 2029.89 332.17 2023.07 332.06 2016.30 331.77 C 2008.76 317.94 2002.16 303.63 1994.98 289.63 C 1989.32 289.50 1983.66 289.43 1978.01 289.68 C 1977.82 303.73 1978.45 317.79 1977.58 331.82 C 1971.04 332.18 1964.49 331.95 1957.96 331.83 C 1957.54 295.55 1957.61 259.25 1957.94 222.97 M 1978.04 241.73 C 1977.98 251.89 1977.99 262.06 1978.05 272.22 C 1987.04 272.36 1996.04 272.63 2005.03 272.21 C 2015.50 271.61 2021.45 258.21 2016.54 249.45 C 2013.75 244.22 2007.52 242.16 2001.97 241.61 C 1994.00 241.08 1986.01 241.94 1978.04 241.73 Z" />
<path fill="#231f21" opacity="1.00" d=" M 1105.42 405.29 C 1107.72 405.15 1111.17 403.87 1112.26 406.78 C 1127.02 438.43 1141.47 470.23 1156.03 501.98 C 1157.92 506.20 1160.52 510.38 1160.30 515.18 C 1153.91 515.43 1147.49 515.66 1141.12 515.16 C 1136.95 509.52 1135.25 502.35 1131.67 496.40 C 1116.19 495.75 1100.67 496.06 1085.18 496.14 C 1082.09 502.42 1080.12 509.32 1075.93 515.01 C 1069.56 515.72 1063.16 515.54 1056.79 515.13 C 1056.61 509.57 1059.89 504.90 1061.97 499.98 C 1076.42 468.40 1091.35 437.04 1105.42 405.29 M 1093.93 478.00 C 1103.67 477.77 1113.41 477.64 1123.16 477.77 C 1122.07 475.04 1120.84 472.38 1119.60 469.72 C 1119.55 469.61 1119.45 469.39 1119.40 469.29 C 1116.51 462.74 1113.57 456.23 1110.58 449.73 C 1110.53 449.62 1110.44 449.40 1110.39 449.29 C 1109.74 447.81 1109.15 446.33 1108.57 444.85 C 1103.37 455.76 1098.33 466.75 1093.93 478.00 Z" />
<path fill="#231f21" opacity="1.00" d=" M 1311.35 405.17 C 1314.32 405.48 1319.13 403.78 1320.19 407.71 C 1328.62 427.64 1338.36 446.98 1347.28 466.68 C 1349.19 470.83 1350.90 475.08 1353.12 479.10 C 1357.46 472.97 1359.74 465.70 1363.17 459.06 C 1371.45 441.05 1380.05 423.19 1388.29 405.16 C 1390.71 404.92 1393.16 404.93 1395.61 405.13 C 1400.12 431.64 1405.13 458.06 1409.61 484.57 C 1411.15 494.77 1413.85 504.85 1414.22 515.19 C 1407.67 515.34 1401.06 515.85 1394.57 514.87 C 1392.38 501.95 1390.00 489.07 1388.30 476.08 C 1387.25 469.27 1386.67 462.35 1384.96 455.67 C 1381.18 461.64 1378.87 468.40 1375.78 474.73 C 1369.86 487.89 1364.09 501.11 1358.29 514.32 C 1357.01 518.70 1349.26 518.15 1348.27 513.71 C 1340.23 495.21 1331.53 477.01 1323.55 458.49 C 1323.11 457.60 1322.61 456.77 1322.06 455.98 C 1317.23 475.16 1315.93 495.02 1312.41 514.45 C 1306.17 516.26 1299.25 515.22 1292.76 515.09 C 1293.33 501.76 1296.50 488.74 1298.84 475.65 C 1302.71 452.11 1307.21 428.67 1311.35 405.17 Z" />
<path fill="#231f21" opacity="1.00" d=" M 1494.23 405.11 C 1496.77 405.00 1499.32 404.97 1501.89 405.02 C 1507.60 412.29 1514.50 418.48 1520.67 425.34 C 1535.72 441.33 1550.48 457.60 1565.97 473.15 C 1566.43 451.11 1565.82 429.05 1566.33 407.00 C 1572.91 405.97 1579.64 406.48 1586.25 407.02 C 1586.58 442.67 1586.39 478.35 1586.30 514.00 C 1586.71 517.94 1581.78 517.25 1579.29 516.79 C 1560.48 497.22 1542.80 476.57 1524.21 456.80 C 1520.97 453.44 1518.07 449.72 1514.39 446.84 C 1514.00 469.59 1514.41 492.35 1514.10 515.10 C 1507.51 515.42 1500.86 515.75 1494.30 515.01 C 1493.74 478.38 1493.91 441.74 1494.23 405.11 Z" />
<path fill="#231f21" opacity="1.00" d=" M 1695.31 405.24 C 1706.90 403.41 1718.86 406.31 1729.04 411.94 C 1731.60 413.46 1734.89 414.96 1735.63 418.15 C 1735.63 420.60 1733.66 422.52 1732.61 424.61 C 1730.74 427.43 1728.95 431.54 1725.00 431.53 C 1722.56 431.19 1720.50 429.70 1718.35 428.65 C 1712.48 425.48 1705.98 422.52 1699.15 423.22 C 1694.12 423.93 1688.96 427.65 1688.42 433.00 C 1687.96 437.38 1690.81 441.27 1694.01 443.94 C 1699.03 448.06 1705.29 450.16 1711.14 452.80 C 1720.21 456.58 1729.14 461.89 1734.73 470.20 C 1739.32 476.87 1739.82 485.50 1738.33 493.23 C 1736.93 500.59 1731.73 506.52 1725.82 510.78 C 1717.97 516.03 1708.22 517.66 1698.94 516.96 C 1688.25 516.32 1677.54 512.67 1669.32 505.70 C 1667.92 504.67 1667.12 502.91 1667.33 501.19 C 1669.17 498.08 1670.97 494.94 1672.82 491.82 C 1674.15 489.25 1677.82 487.61 1680.22 489.80 C 1687.17 494.76 1695.19 499.18 1704.00 498.87 C 1710.12 499.08 1715.83 493.83 1716.78 487.92 C 1716.85 480.71 1710.61 475.33 1704.64 472.37 C 1695.31 468.02 1685.41 464.32 1677.64 457.35 C 1672.58 452.97 1669.17 446.86 1667.76 440.35 C 1665.77 429.78 1670.36 418.38 1678.90 411.91 C 1683.69 408.35 1689.43 406.20 1695.31 405.24 Z" />
<path fill="#231f21" opacity="1.00" d=" M 2003.18 405.00 C 2005.05 405.01 2006.93 405.04 2008.84 405.10 C 2021.84 433.44 2034.81 461.81 2047.84 490.14 C 2051.39 498.25 2055.68 506.10 2058.11 514.65 C 2058.63 514.62 2059.68 514.57 2060.21 514.55 C 2059.79 515.24 2059.41 515.95 2059.07 516.67 C 2055.51 514.08 2050.96 515.58 2046.93 515.44 C 2043.67 515.30 2039.44 517.03 2037.11 513.89 C 2034.08 508.31 2031.67 502.41 2029.43 496.48 C 2013.71 495.69 1997.95 496.06 1982.22 496.31 C 1979.65 501.74 1977.56 507.39 1974.78 512.71 C 1974.15 513.83 1973.55 515.41 1971.99 515.18 C 1967.63 515.37 1963.28 515.48 1958.98 516.14 C 1957.01 516.65 1955.23 515.60 1953.49 514.97 C 1954.66 508.46 1958.03 502.64 1960.63 496.64 C 1975.07 466.21 1988.77 435.44 2003.18 405.00 M 2003.27 449.31 C 1999.31 458.91 1994.40 468.11 1990.93 477.91 C 2000.75 477.99 2010.57 478.01 2020.40 477.90 C 2016.42 466.45 2010.43 455.83 2005.69 444.69 C 2004.76 446.17 2003.92 447.70 2003.27 449.31 Z" />
<path fill="#231f21" opacity="1.00" d=" M 2247.40 405.63 C 2266.49 402.03 2287.27 409.22 2299.93 423.99 C 2309.06 434.37 2313.95 448.23 2313.69 462.02 C 2313.67 480.13 2304.20 498.08 2288.96 507.95 C 2272.25 518.72 2249.69 520.31 2231.94 511.12 C 2220.65 505.63 2211.50 496.07 2206.49 484.57 C 2195.74 461.75 2202.74 432.17 2222.76 416.75 C 2229.79 410.92 2238.59 407.69 2247.40 405.63 M 2249.36 426.46 C 2231.61 430.70 2218.51 450.15 2222.80 468.19 C 2225.96 483.95 2240.86 496.52 2256.98 496.69 C 2271.31 496.99 2284.87 487.42 2290.44 474.39 C 2294.48 465.30 2294.10 454.38 2289.41 445.61 C 2282.22 431.42 2265.11 422.17 2249.36 426.46 Z" />
<path fill="#231f21" opacity="1.00" d=" M 2335.41 405.31 C 2338.15 405.15 2341.65 403.70 2343.72 406.30 C 2360.83 423.86 2377.27 442.05 2394.30 459.69 C 2398.30 464.00 2401.84 468.90 2406.84 472.16 C 2406.85 450.45 2406.80 428.74 2407.04 407.03 C 2413.65 406.28 2420.33 406.26 2426.97 406.82 C 2427.83 420.53 2427.68 434.27 2427.71 448.00 C 2427.56 467.34 2427.63 486.68 2427.70 506.01 C 2427.70 509.67 2427.40 513.33 2426.94 516.96 C 2424.16 516.86 2420.68 517.82 2418.75 515.26 C 2403.32 498.36 2387.97 481.39 2372.55 464.48 C 2367.03 458.59 2361.90 452.31 2356.09 446.70 C 2355.31 469.40 2355.96 492.13 2355.64 514.84 C 2348.90 515.72 2342.04 515.67 2335.32 514.79 C 2335.38 478.29 2335.51 441.80 2335.41 405.31 Z" />
<path fill="#231f21" opacity="1.00" d=" M 1183.28 406.41 C 1196.87 406.63 1210.47 406.24 1224.07 406.44 C 1241.54 406.85 1258.55 416.19 1268.10 430.86 C 1276.64 443.75 1279.50 460.32 1275.33 475.26 C 1270.61 493.11 1256.17 508.11 1238.43 513.34 C 1229.53 516.05 1220.16 515.21 1211.00 515.43 C 1201.72 515.43 1192.44 515.55 1183.17 515.16 C 1182.78 478.91 1182.58 442.65 1183.28 406.41 M 1203.07 425.78 C 1203.09 449.26 1203.26 472.75 1203.09 496.23 C 1214.29 496.24 1226.30 497.97 1236.63 492.53 C 1246.09 488.12 1252.45 478.70 1254.60 468.67 C 1256.25 460.06 1255.03 450.84 1250.92 443.07 C 1246.15 435.18 1238.54 428.69 1229.39 426.68 C 1220.75 424.82 1211.83 425.64 1203.07 425.78 Z" />
<path fill="#231f21" opacity="1.00" d=" M 1443.23 407.11 C 1450.05 406.19 1457.03 405.87 1463.83 407.16 C 1464.30 441.45 1463.87 475.76 1464.10 510.06 C 1464.08 511.90 1464.12 514.63 1461.85 515.15 C 1455.65 515.81 1449.37 515.41 1443.18 514.89 C 1443.21 478.96 1443.16 443.03 1443.23 407.11 Z" />
<path fill="#231f21" opacity="1.00" d=" M 1757.22 406.38 C 1781.53 406.72 1805.86 405.88 1830.16 406.92 C 1830.55 413.13 1830.80 419.41 1829.80 425.58 C 1821.23 425.52 1812.65 425.45 1804.08 425.75 C 1803.95 455.45 1804.28 485.15 1803.87 514.85 C 1797.09 515.53 1790.19 515.91 1783.43 514.91 C 1783.24 485.18 1783.55 455.45 1783.23 425.73 C 1774.51 425.49 1765.80 425.54 1757.09 425.62 C 1756.06 419.26 1756.13 412.72 1757.22 406.38 Z" />
<path fill="#231f21" opacity="1.00" d=" M 1853.80 407.19 C 1867.48 405.68 1881.26 406.65 1894.99 406.46 C 1900.91 406.43 1907.04 406.00 1912.67 408.22 C 1927.73 413.40 1938.23 430.11 1934.96 445.95 C 1932.62 457.75 1923.27 466.77 1912.81 471.92 C 1917.39 481.53 1922.95 490.62 1927.82 500.08 C 1930.21 504.93 1933.90 509.42 1934.14 515.05 C 1926.89 515.41 1919.49 515.97 1912.31 514.97 C 1907.03 505.36 1902.33 495.43 1897.33 485.67 C 1895.00 481.58 1893.65 476.91 1890.85 473.14 C 1885.36 472.83 1879.83 472.65 1874.35 473.13 C 1874.31 482.75 1874.24 492.37 1874.32 502.00 C 1874.29 506.24 1874.57 510.53 1873.76 514.72 C 1867.15 515.98 1860.39 515.46 1853.75 514.92 C 1853.40 485.95 1853.74 456.97 1853.58 428.00 C 1853.71 421.06 1853.25 414.11 1853.80 407.19 M 1874.27 425.93 C 1874.35 435.90 1874.33 445.87 1874.28 455.84 C 1882.84 455.81 1891.43 456.52 1899.99 455.76 C 1902.76 455.29 1906.06 455.35 1908.14 453.12 C 1911.00 450.25 1914.08 447.04 1914.63 442.83 C 1916.05 435.56 1910.62 428.30 1903.86 426.13 C 1898.95 425.28 1893.94 425.69 1889.00 425.56 C 1884.08 425.70 1879.14 425.27 1874.27 425.93 Z" />
<path fill="#231f21" opacity="1.00" d=" M 2060.21 407.06 C 2071.42 405.82 2082.74 406.66 2094.00 406.45 C 2107.37 406.65 2120.78 405.91 2134.14 406.89 C 2134.59 412.94 2134.52 419.02 2134.18 425.07 C 2125.40 426.17 2116.54 425.23 2107.73 425.73 C 2107.34 455.41 2107.63 485.10 2107.54 514.79 C 2100.77 515.80 2093.88 515.51 2087.10 514.96 C 2086.61 485.22 2086.94 455.47 2086.95 425.73 C 2078.38 425.42 2069.81 425.69 2061.24 425.62 C 2059.23 419.63 2060.15 413.24 2060.21 407.06 Z" />
<path fill="#231f21" opacity="1.00" d=" M 1617.75 406.86 C 1624.47 406.36 1631.24 406.21 1637.96 406.86 C 1638.03 442.91 1638.16 478.97 1637.83 515.02 C 1631.17 515.63 1624.48 515.45 1617.82 515.14 C 1616.98 479.06 1617.30 442.95 1617.75 406.86 Z" />
<path fill="#231f21" opacity="1.00" d=" M 2158.02 406.85 C 2164.65 406.35 2171.33 406.26 2177.97 406.85 C 2178.58 438.90 2178.17 470.95 2178.31 503.01 C 2178.25 507.12 2178.60 511.37 2177.23 515.34 C 2170.82 515.30 2164.42 515.58 2158.03 515.13 C 2157.46 496.76 2157.63 478.38 2157.54 460.00 C 2157.66 442.29 2157.47 424.56 2158.02 406.85 Z" />
</g>
<g id="#ffffffff">
</g>
</svg>
