<?xml version="1.0" encoding="utf-8"?>
<!-- Generator: Adobe Illustrator 19.0.0, SVG Export Plug-In . SVG Version: 6.00 Build 0)  -->
<svg version="1.1" id="Layer_1" xmlns="http://www.w3.org/2000/svg" xmlns:xlink="http://www.w3.org/1999/xlink" x="0px" y="0px"
	 viewBox="0 0 1000 1000" style="enable-background:new 0 0 1000 1000;" xml:space="preserve">
<style type="text/css">
	.st0{fill:#CB0202;}
	.st1{fill:#FFFFFF;}
</style>
<title>CNN logo</title>
<title>CNN logo</title>
<rect id="XMLID_1_" class="st0" width="1000" height="1000"/>
<g id="XMLID_8_">
	<path id="XMLID_9_" class="st1" d="M148.3,685.3c5.8,2.8,10.2,6.7,13.1,11.9c2.9,5.2,4.4,11.4,4.4,18.6s-1.5,13.5-4.4,18.7
		c-2.9,5.2-7.3,9.2-13.1,12c-5.8,2.8-12.9,4.1-21.4,4.1h-21.2v37.9H82.1V681.2h44.9C135.4,681.2,142.5,682.5,148.3,685.3z
		 M105.7,699.8v32.1h18.8c12.2,0,18.4-5.4,18.4-16.1c0-10.6-6.1-16-18.4-16H105.7z"/>
	<path id="XMLID_12_" class="st1" d="M202.2,715.8h0.5c2.3-4,5.6-7.2,9.9-9.4c4.3-2.3,9.2-3.4,14.8-3.4c6.7,0,12.4,1.6,16.9,4.9
		c4.6,3.3,7.8,8,9.7,14.1c1.4,4.9,2.1,10.8,2.1,17.6v48.9h-22.6v-48.6c0-6.3-1.2-10.9-3.6-13.7c-2.4-2.8-5.8-4.2-10.2-4.2
		c-5.6,0-9.9,1.9-12.9,5.8c-3,3.9-4.5,9.3-4.5,16.3v44.4h-22.6V674.4h22.6V715.8z"/>
	<path id="XMLID_14_" class="st1" d="M299.6,688.8H277V669h22.6V688.8z M299.6,788.5H277V706h22.6V788.5z"/>
	<path id="XMLID_17_" class="st1" d="M343.9,788.5H321V674.4h22.9V788.5z"/>
	<path id="XMLID_19_" class="st1" d="M387.8,688.8h-22.6V669h22.6V688.8z M387.8,788.5h-22.6V706h22.6V788.5z"/>
	<path id="XMLID_22_" class="st1" d="M476.3,709.2c5.3,4.2,9.2,9.6,11.7,16.3c2.6,6.7,3.8,13.8,3.8,21.5c0,7.5-1.3,14.6-3.8,21.3
		c-2.6,6.7-6.5,12.1-11.7,16.3c-5.3,4.2-11.8,6.2-19.6,6.2c-4.9,0-9.6-1.1-13.9-3.3c-4.4-2.2-7.9-5.3-10.5-9.3h-0.5v40.5h-22.6V706
		h21.1v11.7h0.5c2.4-4.2,5.7-7.7,9.9-10.5c4.2-2.8,9.5-4.2,16-4.2C464.5,703,471,705.1,476.3,709.2z M436.5,727.7
		c-3.4,4.4-5.1,10.8-5.1,19.3c0,5.5,0.8,10.2,2.3,14.1c1.6,3.9,3.8,6.8,6.7,8.7c2.9,2,6.3,2.9,10.1,2.9c3.6,0,6.8-1,9.6-2.9
		c2.8-2,5-4.9,6.5-8.7c1.6-3.9,2.3-8.6,2.3-14.1c0-5.6-0.8-10.4-2.3-14.2c-1.6-3.9-3.7-6.8-6.5-8.7c-2.8-2-6-2.9-9.7-2.9
		C444.6,721.1,439.9,723.3,436.5,727.7z"/>
	<path id="XMLID_25_" class="st1" d="M575.5,709.2c5.3,4.2,9.2,9.6,11.7,16.3c2.6,6.7,3.8,13.8,3.8,21.5c0,7.5-1.3,14.6-3.8,21.3
		c-2.6,6.7-6.5,12.1-11.7,16.3c-5.3,4.2-11.8,6.2-19.6,6.2c-4.9,0-9.6-1.1-13.9-3.3c-4.4-2.2-7.9-5.3-10.5-9.3H531v40.5h-22.6V706
		h21.1v11.7h0.5c2.4-4.2,5.7-7.7,9.9-10.5c4.2-2.8,9.5-4.2,16-4.2C563.7,703,570.3,705.1,575.5,709.2z M535.7,727.7
		c-3.4,4.4-5.1,10.8-5.1,19.3c0,5.5,0.8,10.2,2.3,14.1c1.6,3.9,3.8,6.8,6.7,8.7c2.9,2,6.3,2.9,10.1,2.9c3.6,0,6.8-1,9.6-2.9
		c2.8-2,5-4.9,6.5-8.7c1.6-3.9,2.3-8.6,2.3-14.1c0-5.6-0.8-10.4-2.3-14.2c-1.6-3.9-3.7-6.8-6.5-8.7c-2.8-2-6-2.9-9.7-2.9
		C543.8,721.1,539.1,723.3,535.7,727.7z"/>
	<path id="XMLID_28_" class="st1" d="M630.3,688.8h-22.6V669h22.6V688.8z M630.3,788.5h-22.6V706h22.6V788.5z"/>
	<path id="XMLID_31_" class="st1" d="M716.3,707.9c4.6,3.3,7.8,8,9.7,14.1c1.4,4.9,2.1,10.8,2.1,17.6v48.9h-22.6v-48.6
		c0-6.3-1.2-10.9-3.6-13.7c-2.4-2.8-5.8-4.2-10.2-4.2c-5.6,0-9.9,1.9-12.9,5.8c-3,3.9-4.5,9.3-4.5,16.3v44.4h-22.6V706h21.1v11h0.5
		c3-4.6,6.7-8.1,11.2-10.5c4.5-2.4,9.5-3.5,15-3.5C706.1,703,711.7,704.6,716.3,707.9z"/>
	<path id="XMLID_33_" class="st1" d="M826.3,753.1h-58.9c0.2,3.7,1.1,7.1,2.6,10.2c1.5,3.1,3.7,5.6,6.6,7.5
		c2.9,1.9,6.4,2.8,10.5,2.8c3.2,0,6-0.6,8.4-1.8c2.4-1.2,4.4-3.2,6.1-5.9h22.6c-0.9,5.1-3.1,9.5-6.5,13.2c-3.4,3.7-7.8,6.6-13,8.6
		c-5.3,2-11.1,3-17.4,3c-8.8,0-16.5-1.8-23-5.3c-6.5-3.6-11.4-8.6-14.9-15.2c-3.5-6.6-5.2-14.3-5.2-23.3c0-8.7,1.8-16.4,5.4-23.1
		c3.6-6.7,8.6-11.8,14.8-15.4c6.3-3.6,13.3-5.4,21-5.4c8.2,0,15.4,1.8,21.6,5.5c6.2,3.7,10.9,8.8,14.2,15.4c3.3,6.6,5,14.3,5,22.9
		V753.1z M803.5,738.7c-0.3-3.6-1.2-6.9-2.6-9.7c-1.4-2.9-3.4-5.1-6.1-6.9c-2.7-1.7-5.8-2.6-9.4-2.6c-3.6,0-6.8,0.9-9.4,2.6
		c-2.7,1.7-4.7,4-6.1,6.9c-1.4,2.9-2.3,6.1-2.6,9.7H803.5z"/>
	<path id="XMLID_36_" class="st1" d="M900.7,709.4c6.1,4.3,9.8,10.4,11.2,18.4h-22.6c-1.6-5.8-6.3-8.7-14.2-8.7
		c-4.2,0-7.3,0.8-9.2,2.3c-1.9,1.6-2.9,3.5-2.9,5.8c0,2.3,0.8,4.1,2.4,5.3c1.6,1.3,4.1,2.3,7.5,3.1l18.1,4.4
		c7.1,1.8,12.5,4.6,16.3,8.3c3.7,3.7,5.6,8.9,5.6,15.7c0,5.4-1.4,10.1-4.1,14.2c-2.8,4-6.8,7.1-12.1,9.3c-5.3,2.2-11.7,3.3-19.3,3.3
		c-11.5,0-20.9-2.2-27.9-6.6c-7.1-4.4-11.2-11.2-12.4-20.5h22.6c1.9,7.3,7.7,11,17.5,11c4,0,7.1-0.8,9.1-2.4
		c2.1-1.6,3.1-3.7,3.1-6.3c0-1.6-0.4-3-1.1-4.1c-0.8-1.2-2.1-2.2-3.9-3c-1.9-0.9-4.4-1.7-7.8-2.5l-15.1-3.6
		c-6.9-1.6-12.3-4.4-16.2-8.4c-3.9-4-5.8-9-5.8-15c0-5.3,1.5-10,4.6-13.9c3.1-4,7.3-7,12.8-9.2c5.5-2.2,11.7-3.2,18.7-3.2
		C886.3,703,894.7,705.1,900.7,709.4z"/>
</g>
<g id="XMLID_2_">
	<g id="XMLID_6_">
		<path id="XMLID_40_" class="st1" d="M148,396.9c0,70.7,57.5,128.3,128.3,128.3h119.8c7.5,0,13.4-7.2,13.4-13.3V276.8
			c0-14.8,12.1-26.9,26.9-26.9c9.5,0,18.4,5,23.2,13.2c0.6,1,36.9,63.6,75.3,129.8c36.7,63.3,74.6,128.7,75.2,129.7
			c1.9,3.3,5.7,5.4,9.6,5.4c6.2,0,11.2-5,11.2-11.2v-240c0-14.8,12.1-26.9,26.9-26.9c9.5,0,18.4,5,23.2,13.2
			c0.6,1,36.8,63.6,75.2,129.8c36.7,63.3,74.6,128.7,75.2,129.7c1.9,3.3,5.7,5.4,9.6,5.4c6.2,0,11.2-5,11.2-11.2V205.6h-47.2v185.2
			c0,0-85.6-147.3-88.3-152C704,217.4,680.3,204,655.1,204c-39.5,0-71.5,32-71.5,71.5v115.3c0,0-85.6-147.3-88.3-152
			C482.7,217.4,459,204,433.8,204c-39.5,0-71.5,32-71.5,71.5V465c0,6.9-5.2,12.9-12.7,12.9h-72.8c-44.8,0-81-36.3-81-81
			c0-44.8,36.3-81,81-81h61v-47.2h-61.5C205.5,268.6,148,326.1,148,396.9"/>
		<path id="XMLID_39_" class="st1" d="M867.8,205.6v311.1c0,14.9-12.1,26.9-26.9,26.9c-9.5,0-18.4-5-23.2-13.2
			c-0.6-1-36.8-63.6-75.2-129.8C705.8,337.4,667.9,272,667.3,271c-1.9-3.3-5.7-5.4-9.6-5.4c-6.2,0-11.2,5-11.2,11.2v240
			c0,14.9-12.1,26.9-26.9,26.9c-9.5,0-18.4-5-23.2-13.2c-0.6-1-36.9-63.6-75.3-129.8C484.5,337.4,446.5,272,445.9,271
			c-1.9-3.3-5.7-5.4-9.6-5.4c-6.2,0-11.2,5-11.2,11.2v235.1c0,15.5-13.6,29.1-29.1,29.1H276.3c-79.4,0-144-64.6-144-144
			c0-79.4,64.6-144,144-144h61.5v-47.2h-61.5c-105.6,0-191.2,85.6-191.2,191.2c0,105.6,85.6,191.2,191.2,191.2h121
			c45.8,0,75.3-26.8,75.2-76.3V402.7c0,0,86.2,148.3,88.3,152c12.5,21.3,36.2,34.8,61.4,34.8c39.5,0,71.5-32,71.5-71.5V402.7
			c0,0,85.6,147.3,88.3,152c12.5,21.3,36.2,34.8,61.4,34.8c39.5,0,71.5-32,71.5-71.5V205.6H867.8z"/>
	</g>
</g>
</svg>
